<svg width="29" height="29" viewBox="0 0 29 29" fill="none" xmlns="http://www.w3.org/2000/svg">
<path fill-rule="evenodd" clip-rule="evenodd" d="M10.5 0C13.3995 0 15.7501 2.35048 15.7501 5.24995C15.7501 8.05282 13.5536 10.3427 10.7881 10.4922L10.5 10.5C7.60057 10.5 5.25002 8.1495 5.25002 5.24995C5.25002 2.44716 7.44645 0.157219 10.212 0.00773442L10.5 0ZM0 27H13.2041C12.6674 26.0727 12.3017 25.0566 12.1245 24H3.00002V21.6L3.00783 21.3088C3.15246 18.6112 5.29404 16.5 7.875 16.5H13.125L13.3998 16.508C13.6676 16.5236 13.93 16.562 14.1851 16.6213C14.9435 15.7425 15.8642 15.0181 16.8967 14.4877C15.7766 13.858 14.4915 13.5 13.125 13.5H7.875L7.55044 13.5068C3.35173 13.6818 0 17.2383 0 21.6V27ZM8.25005 5.24995C8.25005 4.00732 9.25741 2.99995 10.5 2.99995C11.7427 2.99995 12.75 4.00732 12.75 5.24995C12.75 6.49259 11.7427 7.49995 10.5 7.49995C9.25741 7.49995 8.25005 6.49259 8.25005 5.24995ZM16.5916 28.5676L21 25.875L25.4084 28.5676L24.2099 23.5429L28.1329 20.1824L22.9838 19.7696L21 15L19.0162 19.7696L13.8671 20.1824L17.7902 23.5429L16.5916 28.5676Z" fill="#6C63FF"/>
</svg>
