<svg width="23" height="27" viewBox="0 0 23 27" fill="none" xmlns="http://www.w3.org/2000/svg">
<path d="M17 9.91667C17 17.4675 5.66667 17.4675 5.66667 9.91667H8.5C8.5 13.6992 14.1667 13.6992 14.1667 9.91667M22.6667 22.6667V26.9167H0V22.6667C0 18.8842 7.55083 17 11.3333 17C15.1158 17 22.6667 18.8842 22.6667 22.6667ZM19.975 22.6667C19.975 21.76 15.5408 19.6917 11.3333 19.6917C7.12583 19.6917 2.69167 21.76 2.69167 22.6667V24.225H19.975M12.0417 0C12.4383 0 12.75 0.311667 12.75 0.708333V4.95833H14.1667V1.41667C15.1693 1.88066 16.0092 2.63527 16.5776 3.58259C17.146 4.5299 17.4166 5.62618 17.3542 6.72917C17.3542 6.72917 18.3458 6.9275 18.4167 8.5H4.25C4.25 6.9275 5.3125 6.72917 5.3125 6.72917C5.2501 5.62618 5.52065 4.5299 6.08903 3.58259C6.65742 2.63527 7.49741 1.88066 8.5 1.41667V4.95833H9.91667V0.708333C9.91667 0.311667 10.2283 0 10.625 0" fill="#6C63FF"/>
</svg>
